<?xml version="1.0" encoding="utf-8"?>
<!-- Generator: Adobe Illustrator 22.1.0, SVG Export Plug-In . SVG Version: 6.00 Build 0)  -->
<svg version="1.1" xmlns="http://www.w3.org/2000/svg" xmlns:xlink="http://www.w3.org/1999/xlink" x="0px" y="0px"
	 viewBox="0 0 124 124" style="enable-background:new 0 0 124 124;" xml:space="preserve">
<style type="text/css">	
	.shade{fill:#010101;opacity:0.1;}
	.accent{fill:#E6E7E8;}	
	.main-shade{fill:#2577B3;}
	.accent-shade{fill:#C4C6C7;}
	.main{fill:#4B9DD9;}
	.secondary{fill:#FFFFFF;}
</style>
<g>
</g>
<g>
	<ellipse class="shade" cx="61.3" cy="106.4" rx="41" ry="5.5"/>
	<g>
		<rect x="52.2" y="11.6" class="main-shade" width="18.8" height="18.3"/>
		<rect x="52.2" y="11.6" class="accent-shade" width="18.8" height="2"/>
		<path class="main" d="M29.1,23c0,0-8.2,14.6-11.7,25.6c0.9,2.7,9.1,8.2,17.1,7.6c2.7-7.3,4.9-10.4,4.9-10.4S39.9,26.8,29.1,23z"/>
		<path class="main" d="M94,23c0,0,8.2,14.6,11.7,25.6c-0.9,2.7-9.1,8.2-17.1,7.6c-2.7-7.3-4.9-10.4-4.9-10.4S83.2,26.8,94,23z"/>
		<g class="shade">
			<path d="M84.9,35.6c-1.3,5.3-1.1,10.2-1.1,10.2s2.2,3.1,4.9,10.4c1.9,0.1,3.8-0.1,5.7-0.5C89.5,42.5,85.4,36.3,84.9,35.6z"/>
		</g>
		<g class="shade">
			<path d="M38.2,35.5c-0.4,0.5-4.5,6.7-9.5,20.1c1.8,0.4,3.8,0.7,5.7,0.5c2.7-7.3,4.9-10.4,4.9-10.4S39.5,40.9,38.2,35.5z"/>
		</g>
		<path class="main" d="M81.8,16.8c-6.4-2.4-9.8-5.2-11-5.2c0,0,0.4,7.5-9.3,14.7c-9.7-7.2-9.3-14.7-9.3-14.7c-1.2,0-4.6,2.8-11,5.2
			c-6.4,2.4-10.5,3.9-12.2,6.2c2.2,1.8,9.4,5.8,9.4,24.1c0,18.3,0,54.2,0,54.2s10,3,23,3c13.8,0,23.2-3,23.2-3s0-36,0-54.2
			c0-18.3,7.1-22.3,9.4-24.1C92.4,20.7,88.2,19.2,81.8,16.8z"/>
	</g>
	<g>
		<path class="secondary" d="M41.9,102.2c2,0.4,4.9,1,8.3,1.4V12.4c-1.7,1-4.5,2.6-8.3,4.1V102.2z"/>
		<path class="secondary" d="M65.5,104.2V22.7c-1.1,1.2-2.4,2.4-4,3.6c-1.8-1.3-3.2-2.6-4.3-3.9v81.8c1.4,0.1,2.8,0.1,4.3,0.1
			C62.9,104.3,64.2,104.3,65.5,104.2z"/>
		<path class="secondary" d="M80.8,16.4c-4-1.6-6.7-3.2-8.3-4.1v91.4c3.4-0.4,6.3-0.9,8.3-1.4V16.4z"/>
	</g>
	<g class="shade">
		<g>
			<path d="M75,55.4c-0.5,14.9-1.3,37.2-1.7,48.2c7-0.9,11.3-2.2,11.3-2.2s0-36,0-54.2c0-6.9,1-11.7,2.4-15.2
				C81.2,36.4,75.4,43.5,75,55.4z"/>
		</g>
		<g>
			<path d="M49.8,103.6c-0.4-11-1.1-33.3-1.7-48.1c-0.4-12-6.2-19.1-12-23.5c1.4,3.5,2.4,8.3,2.4,15.2c0,18.3,0,54.2,0,54.2
				S42.9,102.7,49.8,103.6z"/>
		</g>
	</g>
	<path class="accent" d="M60,28.4l1.6,1.2l1.6-1.2c7.6-6.4,9.4-12.8,9.8-15.7c-1.1-0.6-1.9-1.1-2.3-1.1c0,0,0.4,7.5-9.1,14.7
		c-9.5-7.2-9.1-14.7-9.1-14.7c-0.4,0-1.2,0.4-2.3,1.1C50.5,15.6,52.3,22,60,28.4z"/>
	<g>
		<path class="accent" d="M18.4,45.5c-0.4,1.1-0.8,2.1-1.1,3.1c0.9,2.7,9.1,8.2,17.1,7.6c0.4-1.1,0.8-2,1.1-2.9
			C29,53.5,20.8,48.4,18.4,45.5z"/>
	</g>
	<g>
		<path class="accent" d="M104.7,45.6c-2.3,2.9-10.6,7.9-17.2,7.6c0.4,0.9,0.7,1.9,1.1,2.9c8,0.6,16.2-4.9,17.1-7.6
			C105.4,47.6,105.1,46.6,104.7,45.6z"/>
	</g>
</g>
</svg>
