<?xml version="1.0" encoding="utf-8"?>
<!-- Generator: Adobe Illustrator 22.1.0, SVG Export Plug-In . SVG Version: 6.00 Build 0)  -->
<svg version="1.1" id="Layer_1" xmlns="http://www.w3.org/2000/svg" xmlns:xlink="http://www.w3.org/1999/xlink" x="0px" y="0px"
	 viewBox="0 0 567 567" style="enable-background:new 0 0 567 567;" xml:space="preserve">
<style type="text/css">	
	.shade{fill:#010101;opacity:0.1;}
	.main-shade{fill:#062240;}
	.accent-shade{fill:#1D8040;}
	.main{fill:#1F3569;}
	.secondary{fill:#1D8040;}	
	.accent{fill:#449360;}
</style>
<ellipse class="shade" cx="282.5" cy="495.3" rx="194.4" ry="26.1"/>
<g>
	<rect x="239.3" y="45.6" class="main-shade" width="89" height="86.5"/>
	<rect x="239.3" y="45.6" class="accent-shade" width="89" height="9.6"/>
	<path class="main" d="M129.5,99.9c0,0-38.7,69-55.7,121.2c4.2,12.7,43,38.7,81,35.9c12.7-34.5,23.2-49.3,23.2-49.3
		S181,117.5,129.5,99.9z"/>
	<path class="main" d="M437.4,99.9c0,0,38.7,69,55.7,121.2c-4.2,12.7-43,38.7-81,35.9c-12.7-34.5-23.2-49.3-23.2-49.3
		S386,117.5,437.4,99.9z"/>
	<g class="st14">
		<path class="shade" d="M394.1,159.2c-6,25.2-5.3,48.4-5.3,48.4s10.6,14.8,23.2,49.3c9.1,0.7,18.2-0.3,27-2.4
			C416,192,396.6,162.8,394.1,159.2z"/>
	</g>
	<g class="st4">
		<path class="shade" d="M172.8,159.1c-1.8,2.6-21.5,31.6-45,95.5c8.7,2.1,17.9,3.1,27.1,2.4c12.7-34.5,23.2-49.3,23.2-49.3
			S178.8,184.3,172.8,159.1z"/>
	</g>
	<g>
		<path class="main" d="M379.7,72.1c-30.3-11.3-46.5-24.7-52.1-24.7c0,0,2,35.4-44,69.6c-46.1-34.3-44-69.6-44-69.6
		c-5.6,0-21.8,13.4-52.1,24.7c-30.3,11.3-50,18.3-57.8,29.6c10.6,8.5,44.4,27.5,44.4,114.1c0,86.7,0,257.1,0,257.1
		S221.1,487,283.1,487c65.5,0,109.9-14.1,109.9-14.1s0-170.5,0-257.1c0-86.7,33.8-105.7,44.4-114.1C429.7,90.4,410,83.3,379.7,72.1z
		"/>
	</g>
</g>
<g>
	<path class="accent" d="M79.2,206.1c-1.9,5.1-3.7,10.1-5.3,14.9c4.2,12.7,43,38.7,81,35.9c1.9-5.1,3.7-9.6,5.4-13.9
		C129,244.2,90.3,220.3,79.2,206.1z"/>
</g>
<g>
	<path class="accent" d="M488.1,207c-11,13.9-50,37.2-81.5,36.1c1.8,4.3,3.6,8.8,5.4,13.9c38,2.8,76.8-23.2,81-35.9
		C491.6,216.5,489.9,211.8,488.1,207z"/>
</g>
<path class="secondary" d="M331.2,93.3h99.9c0,0-8.1-6.4-24.1-12.6c-16-6.2-52.4-18.8-69.4-30c0,0-6.7,26.2-17.5,42.6H331.2z"/>
<path class="secondary" d="M236,93.3H136c0,0,8.1-6.4,24.1-12.6c16-6.2,52.4-18.8,69.4-30c0,0,6.7,26.2,17.5,42.6H236z"/>
<path class="accent" d="M117.6,139.9c9.6-19.7,17.1-33.4,17.1-33.4c7.5-11.3,26.6-18.3,55.8-29.6c27.9-10.7,43.3-23.3,49.4-24.4
	c-0.6-4.3-0.5-6.8-0.5-6.8c-5.6,0-21.8,13.4-52.1,24.7c-30.3,11.3-50,18.3-57.8,29.6c0,0-7.8,14-17.9,34L117.6,139.9z"/>
<path class="accent" d="M376.4,76.9c29.3,11.3,48.3,18.3,55.8,29.6c0,0,7.1,13.1,16.3,32l6-6c-9.8-19.2-17.2-32.5-17.2-32.5
	c-7.7-11.3-27.5-18.3-57.8-29.6c-30.3-11.3-46.5-24.7-52.1-24.7c0,0,0.1,2.5-0.5,6.8C333.1,53.6,348.5,66.1,376.4,76.9z"/>
<path class="secondary" d="M154,125.9h258.9c0,0-10.5,16-15.3,39.5H169.3C169.3,165.5,165.5,142.4,154,125.9z"/>
<path class="accent" d="M276.1,125.2l7.4,5.8l7.4-5.8c36.2-30.5,44.7-60.6,46.7-74.5c-5.3-3.1-9-5.1-11.1-5.1c0,0,2,35.4-43,69.6
	c-44.9-34.3-43-69.6-43-69.6c-2.1,0-5.8,2-11.1,5.1C231.3,64.7,239.9,94.8,276.1,125.2z"/>
<path class="secondary" d="M173.4,196.1h220.2c0,0-0.9,15.8-0.5,39.5H173.9C173.9,235.6,174.6,200.5,173.4,196.1z"/>
<rect x="173.9" y="267.2" class="secondary" width="219.1" height="39.5"/>
<rect x="173.9" y="339.3" class="secondary" width="219.1" height="39.5"/>
<rect x="173.9" y="410.5" class="secondary" width="219.1" height="39.5"/>
<g class="st4">
	<g>
		<path class="shade" d="M347.2,253.3c-2.4,70.5-6.1,176.5-7.9,228.4c33.4-4.2,53.7-10.6,53.7-10.6s0-170.5,0-257.1
			c0-32.6,4.8-55.6,11.3-72C376.8,163,349.2,196.7,347.2,253.3z"/>
	</g>
	<g>
		<path class="shade" d="M227.6,481.6c-1.8-52-5.4-157.9-7.9-228.3c-2-56.7-29.5-90.4-57.1-111.4c6.5,16.5,11.3,39.5,11.3,72
			c0,86.7,0,257.1,0,257.1S195.1,477.5,227.6,481.6z"/>
	</g>
</g>
</svg>
