<?xml version="1.0" encoding="utf-8"?>
<!-- Generator: Adobe Illustrator 22.1.0, SVG Export Plug-In . SVG Version: 6.00 Build 0)  -->
<svg version="1.1" id="Layer_1" xmlns="http://www.w3.org/2000/svg" xmlns:xlink="http://www.w3.org/1999/xlink" x="0px" y="0px"
	 viewBox="0 0 567 567" style="enable-background:new 0 0 567 567;" xml:space="preserve">
<style type="text/css">
	.shadow{opacity:0.1;fill:#010101;}
	.shade{fill:#010101;opacity:0.1;}
	.main-shade{fill:#AE3231;}
	.accent-shade{fill:#D7D8D9;}
	.main{fill:#E03F3E;}
	.secondary{fill:#F4F4F4;}
	.accent{fill:#F4F4F4;}
	</style>
<ellipse class="shadow" cx="282.5" cy="496.3" rx="194.3" ry="26.1"/>
<g>
	<rect x="239.3" y="46.8" class="main-shade" width="89" height="86.5"/>
	<rect x="239.3" y="46.8" class="accent-shade" width="89" height="9.6"/>
	<path class="secondary" d="M129.6,101.1c0,0-38.7,69-55.6,121.1c4.2,12.7,43,38.7,81,35.9c12.7-34.5,23.2-49.3,23.2-49.3
		S181,118.7,129.6,101.1z"/>
	<path class="secondary" d="M437.4,101.1c0,0,38.7,69,55.6,121.1c-4.2,12.7-43,38.7-81,35.9c-12.7-34.5-23.2-49.3-23.2-49.3
		S386,118.7,437.4,101.1z"/>
	<g>
		<path class="shade" d="M394.1,160.4c-6,25.2-5.3,48.4-5.3,48.4s10.6,14.8,23.2,49.3c9.1,0.7,18.2-0.3,26.9-2.4
			C415.9,193.1,396.5,163.9,394.1,160.4z"/>
	</g>
	<g>
		<path class="shade" d="M172.8,160.3c-1.8,2.6-21.5,31.6-44.9,95.4c8.7,2.1,17.9,3.1,27.1,2.4c12.7-34.5,23.2-49.3,23.2-49.3
			S178.9,185.5,172.8,160.3z"/>
	</g>
	<path class="main" d="M379.6,71.5c-30.3-11.3-46.5-24.6-52.1-24.6c0,0,2,35.3-44,69.6c-46-34.3-44-69.6-44-69.6
		c-5.6,0-21.8,13.4-52.1,24.6c-30.3,11.3-50,18.3-57.7,29.6c10.6,8.5,44.4,27.5,44.4,114.1c0,86.6,0,257,0,257s47.2,14.1,109.1,14.1
		c65.5,0,109.9-14.1,109.9-14.1s0-170.4,0-257c0-86.6,33.8-105.6,44.4-114.1C429.6,89.8,409.9,82.8,379.6,71.5z"/>
</g>
<path class="accent" d="M276.1,126.4l7.4,5.8l7.4-5.8c36.2-30.4,44.7-60.5,46.7-74.5c-5.3-3.1-9-5.1-11.1-5.1c0,0,2,35.3-42.9,69.6
	c-44.9-34.3-42.9-69.6-42.9-69.6c-2.1,0-5.8,2-11.1,5.1C231.4,65.9,239.9,96,276.1,126.4z"/>
<g class="st4">
	<g>
		<path class="shade" d="M347.2,254.5c-2.4,70.4-6.1,176.4-7.9,228.3c33.4-4.2,53.7-10.6,53.7-10.6s0-170.4,0-257
			c0-32.5,4.8-55.5,11.3-72C376.7,164.1,349.1,197.8,347.2,254.5z"/>
	</g>
	<g>
		<path class="shade" d="M227.7,482.6c-1.8-51.9-5.4-157.8-7.9-228.2c-2-56.6-29.5-90.3-57.1-111.3c6.5,16.5,11.3,39.5,11.3,72
			c0,86.6,0,257,0,257S195.1,478.5,227.7,482.6z"/>
	</g>
</g>
<path class="accent" d="M117.7,141.1c9.6-19.7,17-33.4,17-33.4c7.5-11.3,26.5-18.3,55.8-29.6c27.9-10.7,43.3-23.3,49.4-24.4
	c-0.6-4.3-0.5-6.8-0.5-6.8c-5.6,0-21.8,13.4-52.1,24.6c-30.3,11.3-50,18.3-57.7,29.6c0,0-7.8,14-17.9,34L117.7,141.1z"/>
<path class="accent" d="M376.4,78.1c29.3,11.3,48.3,18.3,55.8,29.6c0,0,7.1,13.1,16.3,32l6-6c-9.8-19.2-17.2-32.5-17.2-32.5
	c-7.7-11.3-27.5-18.3-57.7-29.6c-30.3-11.3-46.5-24.6-52.1-24.6c0,0,0.1,2.5-0.5,6.8C333.1,54.8,348.5,67.3,376.4,78.1z"/>
</svg>
