<?xml version="1.0" encoding="utf-8"?>
<!-- Generator: Adobe Illustrator 22.1.0, SVG Export Plug-In . SVG Version: 6.00 Build 0)  -->
<svg version="1.1" id="Layer_1" xmlns="http://www.w3.org/2000/svg" xmlns:xlink="http://www.w3.org/1999/xlink" x="0px" y="0px"
	 viewBox="0 0 567 567" style="enable-background:new 0 0 567 567;" xml:space="preserve">
<style type="text/css">
	.st0{opacity:6.000000e-02;fill:#010101;}
	.st1{fill:#D2AA2A;}
	.st2{fill:#A32D28;}
	.st3{fill:#FFCB05;}
	.st4{opacity:0.1;}
	.st5{fill:#010101;}
	.st6{fill:#BC3532;}
	.st7{fill:#AE3231;}
	.st8{fill:#D7D8D9;}
	.st9{fill:#F4F4F4;}
	.st10{fill:#E03F3E;}
	.st11{fill:#CCCCCC;}
	.st12{fill:#D2D2D2;}
	.st13{fill:#F0EFEF;}
	.st14{opacity:0.2;}
	.st15{fill:#303030;}
	.st16{fill:#212121;}
	.st17{fill:#E2E2E2;}
	.st18{fill:#E75F29;}
	.st19{fill:#E75F2B;}
	.st20{fill:#062240;}
	.st21{fill:#1D8040;}
	.st22{fill:#1F3569;}
	.st23{clip-path:url(#XMLID_2_);fill:#1D8040;}
	.st24{fill:#449360;}
</style>
<ellipse class="st0" cx="282.5" cy="493.7" rx="193" ry="25.9"/>
<g>
	<rect x="239.6" y="47.3" class="st11" width="88.3" height="85.9"/>
	<rect x="239.6" y="47.3" class="st12" width="88.3" height="9.5"/>
	<path class="st13" d="M130.7,101.3c0,0-38.5,68.5-55.2,120.3c4.2,12.6,42.7,38.5,80.4,35.7c12.6-34.3,23.1-48.9,23.1-48.9
		S181.7,118.7,130.7,101.3z"/>
	<path class="st13" d="M436.3,101.3c0,0,38.5,68.5,55.2,120.3c-4.2,12.6-42.7,38.5-80.4,35.7c-12.6-34.3-23.1-48.9-23.1-48.9
		S385.2,118.7,436.3,101.3z"/>
	<g class="st14">
		<path class="st5" d="M393.3,160.2c-6,25-5.3,48.1-5.3,48.1s10.5,14.7,23.1,48.9c9,0.7,18.1-0.3,26.8-2.4
			C415,192.6,395.7,163.7,393.3,160.2z"/>
	</g>
	<g class="st4">
		<path class="st5" d="M173.6,160c-1.8,2.5-21.3,31.3-44.6,94.8c8.7,2.1,17.8,3.1,26.9,2.4c12.6-34.3,23.1-48.9,23.1-48.9
			S179.6,185.1,173.6,160z"/>
	</g>
	<path class="st13" d="M378.9,73.6c-30.1-11.1-46.2-24.4-51.8-24.4c0,0,2,35-43.8,68.8c-45.8-33.9-43.8-68.8-43.8-68.8
		c-5.6,0-21.7,13.2-51.8,24.4c-30.1,11.1-49.7,18.1-57.4,29.2c10.5,8.4,44.1,27.2,44.1,112.8c0,85.6,0,254.1,0,254.1
		s46.9,13.9,108.5,13.9c65.1,0,109.2-13.9,109.2-13.9s0-168.5,0-254.1c0-85.6,33.6-104.4,44.1-112.8C428.6,91.7,409,84.8,378.9,73.6
		z"/>
</g>
<g>
	<path class="st15" d="M191.2,473.8c9.6,2.1,23.1,4.7,39.2,6.6V51.4c-8.2,4.5-21,12.1-39.2,19.3V473.8z"/>
	<path class="st15" d="M302.3,483.3V99.8c-5.2,5.5-11.3,11.1-18.8,16.7c-8.3-6.2-15-12.4-20.4-18.4v385.1c6.5,0.3,13.2,0.5,20,0.5
		C289.8,483.7,296.1,483.6,302.3,483.3z"/>
	<path class="st15" d="M374.2,70c-18.6-7.4-31.4-15.3-39.2-19.5v430.2c16.2-1.9,29.5-4.3,39.2-6.4V70z"/>
</g>
<g class="st4">
	<g>
		<path class="st5" d="M346.7,253.6c-2.4,69.9-6,175.2-7.8,226.7c33.1-4.1,53.3-10.5,53.3-10.5s0-169.2,0-255.2
			c0-32.3,4.7-55.1,11.2-71.5C376.1,163.9,348.7,197.3,346.7,253.6z"/>
	</g>
	<g>
		<path class="st5" d="M228,480.1c-1.8-51.6-5.4-156.7-7.8-226.6c-1.9-56.2-29.3-89.7-56.7-110.5c6.5,16.4,11.2,39.2,11.2,71.5
			c0,86,0,255.2,0,255.2S195.8,476,228,480.1z"/>
	</g>
</g>
<path class="st16" d="M118.9,141c9.6-19.5,16.9-33.2,16.9-33.2c7.4-11.2,26.4-18.2,55.4-29.4c27.7-10.7,43-23.1,49.1-24.2
	c-0.6-4.2-0.5-6.7-0.5-6.7c-5.6,0-21.7,13.3-51.7,24.5c-30.1,11.2-49.6,18.2-57.3,29.4c0,0-7.8,13.9-17.8,33.7L118.9,141z"/>
<path class="st16" d="M375.7,78.4c29.1,11.2,48,18.2,55.4,29.4c0,0,7,13,16.2,31.7l6-6c-9.7-19.1-17.1-32.3-17.1-32.3
	c-7.7-11.2-27.3-18.2-57.3-29.4c-30.1-11.2-46.1-24.5-51.7-24.5c0,0,0.1,2.5-0.5,6.7C332.7,55.3,348,67.8,375.7,78.4z"/>
<path class="st17" d="M276.1,126.4l7.3,5.7l7.4-5.7c35.9-30.2,44.4-60.1,46.3-74c-5.3-3-9-5-11-5c0,0,2,35.1-42.6,69.1
	c-44.6-34-42.6-69.1-42.6-69.1c-2.1,0-5.7,2-11,5C231.7,66.3,240.2,96.2,276.1,126.4z"/>
</svg>
