<?xml version="1.0" encoding="utf-8"?>
<!-- Generator: Adobe Illustrator 22.1.0, SVG Export Plug-In . SVG Version: 6.00 Build 0)  -->
<svg version="1.1" id="Layer_1" xmlns="http://www.w3.org/2000/svg" xmlns:xlink="http://www.w3.org/1999/xlink" x="0px" y="0px"
	 viewBox="0 0 567 567" style="enable-background:new 0 0 567 567;" xml:space="preserve">
<style type="text/css">	
	.shade{fill:#010101;opacity:0.1;}
	.main-shade{fill:#D2AA2A;}
	.accent-shade{fill:#A32D28;}
	.main{fill:#FFCB05;}		
	.secondary{fill:#E75F29;}
	.accent{fill:#BC3532;}
</style>
<ellipse class="shade" cx="282.5" cy="495.3" rx="194.4" ry="26.1"/>
<g>
	<rect x="239.3" y="45.6" class="main-shade" width="89" height="86.5"/>
	<rect x="239.3" y="45.6" class="accent-shade" width="89" height="9.6"/>
	<path class="secondary" d="M129.5,99.9c0,0-38.7,69-55.7,121.2c4.2,12.7,43,38.7,81,35.9c12.7-34.5,23.2-49.3,23.2-49.3
		S181,117.5,129.5,99.9z"/>
	<path class="main" d="M437.4,99.9c0,0,38.7,69,55.7,121.2c-4.2,12.7-43,38.7-81,35.9c-12.7-34.5-23.2-49.3-23.2-49.3
		S386,117.5,437.4,99.9z"/>
	<g>
		<path class="shade" d="M394.1,159.2c-6,25.2-5.3,48.4-5.3,48.4s10.6,14.8,23.2,49.3c9.1,0.7,18.2-0.3,27-2.4
			C416,192,396.6,162.8,394.1,159.2z"/>
	</g>
	<g>
		<path class="shade" d="M172.8,159.1c-1.8,2.6-21.5,31.6-45,95.5c8.7,2.1,17.9,3.1,27.1,2.4c12.7-34.5,23.2-49.3,23.2-49.3
			S178.8,184.3,172.8,159.1z"/>
	</g>
	<path class="main" d="M379.7,70.3c-30.3-11.3-46.5-24.7-52.1-24.7c0,0,2,35.4-44,69.6c-46.1-34.3-44-69.6-44-69.6
		c-5.6,0-21.8,13.4-52.1,24.7c-30.3,11.3-50,18.3-57.8,29.6c10.6,8.5,44.4,27.5,44.4,114.1c0,86.7,0,257.1,0,257.1
		s47.2,14.1,109.2,14.1c65.5,0,109.9-14.1,109.9-14.1s0-170.5,0-257.1c0-86.7,33.8-105.7,44.4-114.1C429.7,88.6,410,81.6,379.7,70.3
		z"/>
</g>
<path class="secondary" d="M283.5,131l-0.4,354.3c0,0,58.2,0.8,109.9-14.1V214c0,0-2.7-55.5,20.9-90.6c0,0,9-15.2,23.5-23.5
	c0,0-3.8-9-35.8-21.3s-32.9-12.2-64.1-27.9L283.5,131z"/>
<path class="accent" d="M276.1,125.2l7.4,5.8l7.4-5.8c36.2-30.5,44.7-60.6,46.7-74.5c-5.3-3.1-9-5.1-11.1-5.1c0,0,2,35.4-43,69.6
	c-44.9-34.3-43-69.6-43-69.6c-2.1,0-5.8,2-11.1,5.1C231.3,64.7,239.9,94.8,276.1,125.2z"/>
<g>
	<g>
		<path class="shade" d="M347.2,253.3c-2.4,70.5-6.1,176.5-7.9,228.4c33.4-4.2,53.7-10.6,53.7-10.6s0-170.5,0-257.1
			c0-32.6,4.8-55.6,11.3-72C376.8,163,349.2,196.7,347.2,253.3z"/>
	</g>
	<g>
		<path class="shade" d="M227.6,481.6c-1.8-52-5.4-157.9-7.9-228.3c-2-56.7-29.5-90.4-57.1-111.4c6.5,16.5,11.3,39.5,11.3,72
			c0,86.7,0,257.1,0,257.1S195.1,477.5,227.6,481.6z"/>
	</g>
</g>
</svg>
