<?xml version="1.0" encoding="utf-8"?>
<!-- Generator: Adobe Illustrator 22.1.0, SVG Export Plug-In . SVG Version: 6.00 Build 0)  -->
<svg version="1.1" id="Layer_1" xmlns="http://www.w3.org/2000/svg" xmlns:xlink="http://www.w3.org/1999/xlink" x="0px" y="0px"
	 viewBox="0 0 567 567" style="enable-background:new 0 0 567 567;" xml:space="preserve">
<style type="text/css">
	.st0{opacity:6.000000e-02;fill:#010101;}
	.st1{fill:#D2AA2A;}
	.st2{fill:#A32D28;}
	.st3{fill:#FFCB05;}
	.st4{opacity:0.1;}
	.st5{fill:#010101;}
	.st6{fill:#BC3532;}
	.st7{fill:#AE3231;}
	.st8{fill:#D7D8D9;}
	.st9{fill:#F4F4F4;}
	.st10{fill:#E03F3E;}
	.st11{fill:#CCCCCC;}
	.st12{fill:#D2D2D2;}
	.st13{fill:#F0EFEF;}
	.st14{opacity:0.2;}
	.st15{fill:#303030;}
	.st16{fill:#212121;}
	.st17{fill:#E2E2E2;}
	.st18{fill:#E75F29;}
	.st19{fill:#E75F2B;}
	.st20{fill:#062240;}
	.st21{fill:#1D8040;}
	.st22{fill:#1F3569;}
	.st23{clip-path:url(#XMLID_2_);fill:#1D8040;}
	.st24{fill:#449360;}
</style>
<ellipse class="st0" cx="282.8" cy="495.3" rx="194.4" ry="26.1"/>
<g>
	<rect x="239.6" y="45.6" class="st1" width="89" height="86.5"/>
	<rect x="239.6" y="45.6" class="st2" width="89" height="9.6"/>
	<path class="st18" d="M129.8,99.9c0,0-38.7,69-55.7,121.2c4.2,12.7,43,38.7,81,35.9c12.7-34.5,23.2-49.3,23.2-49.3
		S181.3,117.5,129.8,99.9z"/>
	<path class="st3" d="M437.7,99.9c0,0,38.7,69,55.7,121.2c-4.2,12.7-43,38.7-81,35.9c-12.7-34.5-23.2-49.3-23.2-49.3
		S386.3,117.5,437.7,99.9z"/>
	<g class="st4">
		<path class="st5" d="M394.4,159.2c-6,25.2-5.3,48.4-5.3,48.4s10.6,14.8,23.2,49.3c9.1,0.7,18.2-0.3,27-2.4
			C416.3,192,396.9,162.8,394.4,159.2z"/>
	</g>
	<g class="st4">
		<path class="st5" d="M173.1,159.1c-1.8,2.6-21.5,31.6-45,95.5c8.7,2.1,17.9,3.1,27.1,2.4c12.7-34.5,23.2-49.3,23.2-49.3
			S179.1,184.3,173.1,159.1z"/>
	</g>
	<path class="st3" d="M380,70.3c-30.3-11.3-46.5-24.7-52.1-24.7c0,0,2,35.4-44,69.6c-46.1-34.3-44-69.6-44-69.6
		c-5.6,0-21.8,13.4-52.1,24.7c-30.3,11.3-50,18.3-57.8,29.6c10.6,8.5,44.4,27.5,44.4,114.1c0,86.7,0,257.1,0,257.1
		s47.2,14.1,109.2,14.1c65.5,0,109.9-14.1,109.9-14.1s0-170.5,0-257.1c0-86.7,33.8-105.7,44.4-114.1C430,88.6,410.3,81.6,380,70.3z"
		/>
</g>
<path class="st19" d="M283.8,131l0.3,152.5h109.3c0,0-10.3-179.4,44.4-183.6c0,0-5.6-12.9-46.2-25.3c0,0-23.5-8.2-36.9-15.5
	s-16.8-8.4-16.8-8.4"/>
<path class="st6" d="M276.5,125.1l7.4,5.8l7.4-5.8c36.2-30.5,44.7-60.6,46.7-74.5c-5.3-3.1-9-5.1-11.1-5.1c0,0,2,35.4-43,69.6
	c-44.9-34.3-43-69.6-43-69.6c-2.1,0-5.8,2-11.1,5.1C231.8,64.5,240.3,94.6,276.5,125.1z"/>
<path class="st19" d="M284.1,283.5l-0.7,201.8c0,0-53.7,1.8-109.2-14.1V283.5H284.1z"/>
<g class="st4">
	<g>
		<path class="st5" d="M347.5,253.3c-2.4,70.5-6.1,176.5-7.9,228.4c33.4-4.2,53.7-10.6,53.7-10.6s0-170.5,0-257.1
			c0-32.6,4.8-55.6,11.3-72C377.1,163,349.5,196.7,347.5,253.3z"/>
	</g>
	<g>
		<path class="st5" d="M227.9,481.6c-1.8-52-5.4-157.9-7.9-228.3c-2-56.7-29.5-90.4-57.1-111.4c6.5,16.5,11.3,39.5,11.3,72
			c0,86.7,0,257.1,0,257.1S195.4,477.5,227.9,481.6z"/>
	</g>
</g>
</svg>
