<?xml version="1.0" encoding="utf-8"?>
<!-- Generator: Adobe Illustrator 22.1.0, SVG Export Plug-In . SVG Version: 6.00 Build 0)  -->
<svg version="1.1" xmlns="http://www.w3.org/2000/svg" xmlns:xlink="http://www.w3.org/1999/xlink" x="0px" y="0px"
	 viewBox="0 0 124 124" style="enable-background:new 0 0 124 124;" xml:space="preserve">
<style type="text/css">
	.st0{fill:#D1D1D1;}
	.st1{opacity:6.000000e-02;}
	.st2{fill:#002041;}
	.st3{fill:#1C7F3D;}
	.st4{fill:#00306C;}
	.st5{opacity:0.2;}
	.st6{opacity:0.1;}
	.st7{fill:#439360;}
	.st8{clip-path:url(#XMLID_5_);fill:#1C7F3D;}
	.st9{clip-path:url(#XMLID_6_);fill:#1C7F3D;}
	.st10{clip-path:url(#XMLID_7_);fill:#1C7F3D;}
	.st11{fill:#6795B2;}
	.st12{fill:#A7A7A7;}
	.st13{fill:#7FADCE;}
	.st14{fill:#C6C6C6;}
	.st15{fill:#AD3131;}
	.st16{fill:#3D3D3D;}
	.st17{fill:#E03E3D;}
	.st18{fill:#333333;}
	.st19{fill:#CACBCD;}
	.st20{fill:#1E1850;}
	.st21{fill:#F3F4F4;}
	.st22{fill:#282162;}
	.st23{fill:#A13235;}
	.st24{fill:#C8C9CB;}
	.st25{fill:#C03D39;}
	.st26{fill:#E6E7E8;}
	.st27{fill:#203A67;}
	.st28{fill:#022543;}
	.st29{fill:#004075;}
	.st30{fill:#003154;}
	.st31{fill:#9D2926;}
	.st32{fill:#6C141A;}
	.st33{fill:#4A0002;}
	.st34{fill:#42A3BF;}
	.st35{fill:#882228;}
	.st36{fill:#304777;}
	.st37{fill:#C6C7C9;}
	.st38{fill:#3B568C;}
	.st39{fill:#5F0C12;}
	.st40{fill:#BB3231;}
	.st41{fill:#0B66A1;}
	.st42{fill:#A5A5A6;}
	.st43{fill:#007AC2;}
	.st44{fill:#D2A80A;}
	.st45{fill:#A22B28;}
	.st46{fill:#FFCA00;}
	.st47{fill:#AFB1B4;}
	.st48{fill:#231F20;}
	.st49{fill:#000005;}
	.st50{fill:#B0301D;}
	.st51{fill:#D9AD0A;}
	.st52{fill:#D43600;}
	.st53{fill:#1957FF;}
	.st54{fill:#083065;}
	.st55{fill:#0A488E;}
	.st56{fill:#0057AC;}
	.st57{fill:#FFFFFF;}
	.st58{fill:#C4C6C7;}
	.st59{fill:#4B9DD9;}
	.st60{fill:#A12C1F;}
	.st61{fill:#CC7C19;}
	.st62{fill:#F7951D;}
	.st63{fill:#D3D5D6;}
	.st64{fill:#388DA5;}
	.st65{fill:#B8BABC;}
</style>
<g id="Layer_2">
</g>
<g id="Layer_1">
	<ellipse class="st1" cx="62.3" cy="108.4" rx="41" ry="5.5"/>
	<g>
		<rect x="53.2" y="13.6" class="st19" width="18.8" height="18.3"/>
		<rect x="53.2" y="13.6" class="st20" width="18.8" height="2"/>
		<path class="st21" d="M30.1,25c0,0-8.2,14.6-11.7,25.6c0.9,2.7,9.1,8.2,17.1,7.6c2.7-7.3,4.9-10.4,4.9-10.4S40.9,28.8,30.1,25z"/>
		<path class="st21" d="M95,25c0,0,8.2,14.6,11.7,25.6c-0.9,2.7-9.1,8.2-17.1,7.6c-2.7-7.3-4.9-10.4-4.9-10.4S84.2,28.8,95,25z"/>
		<g class="st6">
			<path d="M85.9,37.6c-1.3,5.3-1.1,10.2-1.1,10.2s2.2,3.1,4.9,10.4c1.9,0.1,3.8-0.1,5.7-0.5C90.5,44.5,86.4,38.3,85.9,37.6z"/>
		</g>
		<g class="st6">
			<path d="M39.2,37.5c-0.4,0.5-4.5,6.7-9.5,20.1c1.8,0.4,3.8,0.7,5.7,0.5c2.7-7.3,4.9-10.4,4.9-10.4S40.5,42.9,39.2,37.5z"/>
		</g>
		<path class="st21" d="M82.8,18.8c-6.4-2.4-9.8-5.2-11-5.2c0,0,0.4,7.5-9.3,14.7c-9.7-7.2-9.3-14.7-9.3-14.7c-1.2,0-4.6,2.8-11,5.2
			c-6.4,2.4-10.5,3.9-12.2,6.2c2.2,1.8,9.4,5.8,9.4,24.1c0,18.3,0,54.2,0,54.2s10,3,23,3c13.8,0,23.2-3,23.2-3s0-36,0-54.2
			c0-18.3,7.1-22.3,9.4-24.1C93.4,22.7,89.2,21.2,82.8,18.8z"/>
	</g>
	<g>
		<path class="st22" d="M19.4,47.5c-0.4,1.1-0.8,2.1-1.1,3.1c0.9,2.7,9.1,8.2,17.1,7.6c0.4-1.1,0.8-2,1.1-2.9
			C30,55.5,21.8,50.4,19.4,47.5z"/>
	</g>
	<g>
		<path class="st22" d="M105.7,47.6c-2.3,2.9-10.6,7.9-17.2,7.6c0.4,0.9,0.7,1.9,1.1,2.9c8,0.6,16.2-4.9,17.1-7.6
			C106.4,49.6,106.1,48.6,105.7,47.6z"/>
	</g>
	<path class="st22" d="M61,30.4l1.6,1.2l1.6-1.2c7.6-6.4,9.4-12.8,9.8-15.7c-1.1-0.6-1.9-1.1-2.3-1.1c0,0,0.4,7.5-9.1,14.7
		c-9.5-7.2-9.1-14.7-9.1-14.7c-0.4,0-1.2,0.4-2.3,1.1C51.5,17.6,53.3,24,61,30.4z"/>
	<g class="st6">
		<g>
			<path d="M76,57.4c-0.5,14.9-1.3,37.2-1.7,48.2c7-0.9,11.3-2.2,11.3-2.2s0-36,0-54.2c0-6.9,1-11.7,2.4-15.2
				C82.2,38.4,76.4,45.5,76,57.4z"/>
		</g>
		<g>
			<path d="M50.8,105.6c-0.4-11-1.1-33.3-1.7-48.1c-0.4-12-6.2-19.1-12-23.5c1.4,3.5,2.4,8.3,2.4,15.2c0,18.3,0,54.2,0,54.2
				S43.9,104.7,50.8,105.6z"/>
		</g>
	</g>
	<path class="st22" d="M27.6,33.5c2-4.2,3.6-7,3.6-7c1.6-2.4,5.6-3.9,11.8-6.2c5.9-2.3,9.1-4.9,10.4-5.2c-0.1-0.9-0.1-1.4-0.1-1.4
		c-1.2,0-4.6,2.8-11,5.2c-6.4,2.4-10.5,3.9-12.2,6.2c0,0-1.6,3-3.8,7.2L27.6,33.5z"/>
	<path class="st22" d="M82.1,20.2c6.2,2.4,10.2,3.9,11.8,6.2c0,0,1.5,2.8,3.4,6.7l1.3-1.3C96.6,27.9,95,25,95,25
		c-1.6-2.4-5.8-3.9-12.2-6.2c-6.4-2.4-9.8-5.2-11-5.2c0,0,0,0.5-0.1,1.4C73,15.3,76.3,17.9,82.1,20.2z"/>
</g>
</svg>
